<!-- <?xml version="1.0" encoding="UTF-8" standalone="no"?>

<svg
   xmlns:dc="http://purl.org/dc/elements/1.1/"
   xmlns:cc="http://creativecommons.org/ns#"
   xmlns:rdf="http://www.w3.org/1999/02/22-rdf-syntax-ns#"
   xmlns:svg="http://www.w3.org/2000/svg"
   xmlns="http://www.w3.org/2000/svg"
   xmlns:sodipodi="http://sodipodi.sourceforge.net/DTD/sodipodi-0.dtd"
   xmlns:inkscape="http://www.inkscape.org/namespaces/inkscape"
   width="31.774345mm"
   height="16.231627mm"
   viewBox="0 0 112.58626 57.513637"
   id="svg6626"
   version="1.1"
   inkscape:version="0.91 r13725"
   sodipodi:docname="button.svg">
  <defs
     id="defs6628" />
  <sodipodi:namedview
     id="base"
     pagecolor="#ffffff"
     bordercolor="#666666"
     borderopacity="1.0"/>
  <metadata
     id="metadata6631">
    <rdf:RDF>
      <cc:Work
         rdf:about="">
        <dc:format>image/svg+xml</dc:format>
        <dc:type
           rdf:resource="http://purl.org/dc/dcmitype/StillImage" />
        <dc:title></dc:title>
      </cc:Work>
    </rdf:RDF>
  </metadata>
  <g
     inkscape:label="Layer 1"
     inkscape:groupmode="layer"
     id="layer1"
     transform="translate(0,-0)">
    <path
       style="fill:none;stroke:#000000;stroke-width:3;stroke-linecap:round;stroke-linejoin:round;stroke-miterlimit:10;stroke-dasharray:none;stroke-opacity:1"
       d="m 4,6 c 5.572695,-0.10841 11.15435,-0.0543 16.714039,0.0906 5.00588,0.097 12.756552,0.87502 19.148382,0.62208 4.280136,0.48559 8.602875,-0.3113 12.911003,0.28777 6.163273,-0.0723 12.310277,-1.00298 18.496194,-0.66376 5.809548,0.33404 10.05299,0.46817 17.518635,0.33084 7.40211,-0.5156 10.78398,0.10152"
       id="path242"
       inkscape:connector-curvature="0"
       sodipodi:nodetypes="ccccccccccccccccccccc" />
  </g>
</svg>
 -->
<!--  <svg xmlns="http://www.w3.org/2000/svg" 
     viewBox="0 0 100 12" 
     preserveAspectRatio="none">
  <path d="m 4,6 c 5.572695,-0.10841 11.15435,-0.0543 16.714039,0.0906 5.00588,0.097 12.756552,0.87502 19.148382,0.62208 4.280136,0.48559 8.602875,-0.3113 12.911003,0.28777 6.163273,-0.0723 12.310277,-1.00298 18.496194,-0.66376 5.809548,0.33404 10.05299,0.46817 17.518635,0.33084 7.40211,-0.5156 10.78398,0.10152" 
        style="fill:none;stroke:#000000;stroke-width:3;stroke-linecap:round;stroke-linejoin:round;stroke-miterlimit:10;stroke-dasharray:none;stroke-opacity:1" />
</svg> -->
 <svg xmlns="http://www.w3.org/2000/svg" 
     viewBox="3.5 0 5 90" 
     >
  <path d="M 6,-20 
   L 6,0
   c -0.10841,5.572695 -0.0543,11.15435 0.0906,16.714039 
   c 0.097,5.00588 0.87502,12.756552 0.62208,19.148382 
   c 0.48559,4.280136 -0.3113,8.602875 0.28777,12.911003 
   c -0.0723,6.163273 -1.00298,12.310277 -0.66376,18.496194 
   c 0.33404,5.809548 0.46817,10.05299 0.33084,17.518635
   L 6,90
   L 6,120" 
        style="fill:none;stroke:#000000;stroke-width:3;stroke-linecap:round;stroke-linejoin:round;stroke-miterlimit:10;stroke-dasharray:none;stroke-opacity:1" />
</svg>